# xmcd
#
# Track frame offsets:
#	150
#	18292
#	37815
#	55716
#	72339
#	86015
#	105044
#	120097
#	134014
#	152044
#	171948
#	198262
#	216128
#	225510
#	247762
#
# Disc length: 3773 seconds
#
# Revision: 0
# Processed by: cddbd v1.5.2PL0 Copyright (c) Steve Scherf et al.
# Submitted via: EasyCDDAExtractor 10.0.6.1
#
DISCID=b10ebb0f
DTITLE=Various Artist - BOTY 2007 int.
DYEAR=2007
DGENRE=Cult
TTITLE0=DJ SING feat. Andra Kaman - B Boy Rocks
TTITLE1=DJ NAS'D - Place to be
TTITLE2=VISIONARIES - Crop Circles
TTITLE3=BRISK FINGAZ - Step ya game up
TTITLE4=ESONE - Good Times
TTITLE5=RICK SKI and the Funkmasters - Hop to this
TTITLE6=DJTEE - Alpha Team
TTITLE7=DJ KID STRECH - Live for the Funk, die for the Funk
TTITLE8=Mr. CONFUSE - The Groove Merchant
TTITLE9=HAWKEYE - Running Man
TTITLE10=CALAGAD13 - Rock the Party
TTITLE11=SKRIP BREAKS - Enemy Crush
TTITLE12=DJ DEREZON - Lenoleum
TTITLE13=JAVIER MORILLAS - Rock Yours
TTITLE14=JAY-ROC N' JAKEBEATZ - Red Bull Beat Battle 2007 Mixtape
EXTD=
EXTT0=
EXTT1=
EXTT2=
EXTT3=
EXTT4=
EXTT5=
EXTT6=
EXTT7=
EXTT8=
EXTT9=
EXTT10=
EXTT11=
EXTT12=
EXTT13=
EXTT14=
PLAYORDER=
